<svg width="55" height="55" viewBox="0 0 55 55" fill="none" xmlns="http://www.w3.org/2000/svg">
<g id="icon-park-solid:ambulance">
<g id="Mask group">
<mask id="mask0_13_75" style="mask-type:luminance" maskUnits="userSpaceOnUse" x="2" y="8" width="51" height="39">
<g id="Group">
<g id="Group_2">
<path id="Vector" d="M11.4585 40.1042H6.87516C6.26738 40.1042 5.68448 39.8627 5.25471 39.433C4.82494 39.0032 4.5835 38.4203 4.5835 37.8125V12.6042C4.5835 11.9964 4.82494 11.4135 5.25471 10.9837C5.68448 10.5539 6.26738 10.3125 6.87516 10.3125H35.521C36.1288 10.3125 36.7117 10.5539 37.1415 10.9837C37.5712 11.4135 37.8127 11.9964 37.8127 12.6042V20.5093C37.8125 21.215 38.0297 21.9037 38.4345 22.4818C38.8394 23.0599 39.4124 23.4994 40.0757 23.7405L48.1538 26.6773C48.8171 26.9184 49.3901 27.3579 49.795 27.936C50.1998 28.5141 50.417 29.2028 50.4168 29.9085V37.8125C50.4168 38.4203 50.1754 39.0032 49.7456 39.433C49.3158 39.8627 48.733 40.1042 48.1252 40.1042H43.5418M20.6252 40.1042H34.3752" stroke="white" stroke-width="4.58333" stroke-linejoin="round"/>
<path id="Vector_2" d="M13.75 21.7708H22.9167M18.3333 17.1875V26.3542" stroke="white" stroke-width="4.58333" stroke-linecap="round" stroke-linejoin="round"/>
<path id="Vector_3" d="M16.0418 44.6875C18.5731 44.6875 20.6252 42.6355 20.6252 40.1042C20.6252 37.5729 18.5731 35.5209 16.0418 35.5209C13.5105 35.5209 11.4585 37.5729 11.4585 40.1042C11.4585 42.6355 13.5105 44.6875 16.0418 44.6875Z" fill="white" stroke="white" stroke-width="4.58333"/>
<path id="Vector_4" d="M38.9583 44.6875C41.4896 44.6875 43.5417 42.6355 43.5417 40.1042C43.5417 37.5729 41.4896 35.5209 38.9583 35.5209C36.427 35.5209 34.375 37.5729 34.375 40.1042C34.375 42.6355 36.427 44.6875 38.9583 44.6875Z" fill="white" stroke="white" stroke-width="4.58333"/>
</g>
</g>
</mask>
<g mask="url(#mask0_13_75)">
<path id="Vector_5" d="M0 0H55V55H0V0Z" fill="#64ACA6"/>
</g>
</g>
</g>
</svg>
