<svg width="36" height="56" viewBox="0 0 36 56" fill="none" xmlns="http://www.w3.org/2000/svg">
<path id="Vector" d="M18 26.6C16.3424 26.6 14.7527 25.8625 13.5806 24.5497C12.4085 23.237 11.75 21.4565 11.75 19.6C11.75 17.7435 12.4085 15.963 13.5806 14.6503C14.7527 13.3375 16.3424 12.6 18 12.6C19.6576 12.6 21.2473 13.3375 22.4194 14.6503C23.5915 15.963 24.25 17.7435 24.25 19.6C24.25 20.5193 24.0883 21.4295 23.7742 22.2788C23.4602 23.1281 22.9998 23.8997 22.4194 24.5497C21.8391 25.1998 21.1501 25.7154 20.3918 26.0672C19.6335 26.4189 18.8208 26.6 18 26.6ZM18 0C13.3587 0 8.90752 2.06499 5.62563 5.74071C2.34374 9.41642 0.5 14.4018 0.5 19.6C0.5 34.3 18 56 18 56C18 56 35.5 34.3 35.5 19.6C35.5 14.4018 33.6563 9.41642 30.3744 5.74071C27.0925 2.06499 22.6413 0 18 0Z" fill="black"/>
</svg>
