<svg width="40" height="44" viewBox="0 0 40 44" fill="none" xmlns="http://www.w3.org/2000/svg">
<g id="Group">
<path id="Vector" d="M3 35.7499C3 33.3188 3.89553 30.9872 5.48959 29.2681C7.08365 27.549 9.24566 26.5833 11.5 26.5833H28.5C30.7543 26.5833 32.9163 27.549 34.5104 29.2681C36.1045 30.9872 37 33.3188 37 35.7499C37 36.9655 36.5522 38.1313 35.7552 38.9908C34.9582 39.8504 33.8772 40.3333 32.75 40.3333H7.25C6.12283 40.3333 5.04183 39.8504 4.2448 38.9908C3.44777 38.1313 3 36.9655 3 35.7499Z" stroke="black" stroke-width="5.72917" stroke-linejoin="round"/>
<path id="Vector_2" d="M20 17.4166C23.5208 17.4166 26.375 14.3386 26.375 10.5416C26.375 6.74467 23.5208 3.66663 20 3.66663C16.4792 3.66663 13.625 6.74467 13.625 10.5416C13.625 14.3386 16.4792 17.4166 20 17.4166Z" stroke="black" stroke-width="5.72917"/>
</g>
</svg>
