<svg width="40" height="43" viewBox="0 0 40 43" fill="none" xmlns="http://www.w3.org/2000/svg">
<g id="Group">
<path id="Vector" fill-rule="evenodd" clip-rule="evenodd" d="M22.9524 7.23804L28.1905 12.4761V15.0952C28.1925 17.1404 27.3969 19.1058 25.9727 20.5737C24.5486 22.0417 22.6083 22.8965 20.5639 22.9565C18.5196 23.0165 16.5324 22.277 15.0246 20.8952C13.5168 19.5133 12.6073 17.598 12.4893 15.5561L12.4762 12.4761L22.9524 7.23804Z" stroke="black" stroke-opacity="0.5" stroke-width="2.61905" stroke-linecap="round" stroke-linejoin="round"/>
<path id="Vector_2" d="M7.23804 26.881V15.0952C7.23804 11.6222 8.61771 8.29134 11.0735 5.83551C13.5294 3.37967 16.8602 2 20.3333 2C23.8063 2 27.1372 3.37967 29.593 5.83551C32.0488 8.29134 33.4285 11.6222 33.4285 15.0952V26.881" stroke="black" stroke-opacity="0.5" stroke-width="2.61905" stroke-linejoin="round"/>
<path id="Vector_3" fill-rule="evenodd" clip-rule="evenodd" d="M38.6667 38.6667V36.76C38.6667 28.4131 29.0129 22.9524 20.3333 22.9524C11.6538 22.9524 2 28.4131 2 36.76V38.6667C2 39.3613 2.27593 40.0275 2.7671 40.5186C3.25827 41.0098 3.92443 41.2857 4.61905 41.2857H36.0476C36.7422 41.2857 37.4084 41.0098 37.8996 40.5186C38.3907 40.0275 38.6667 39.3613 38.6667 38.6667Z" stroke="black" stroke-opacity="0.5" stroke-width="2.61905" stroke-linecap="round" stroke-linejoin="round"/>
</g>
</svg>
