<svg width="50" height="50" viewBox="0 0 50 50" fill="none" xmlns="http://www.w3.org/2000/svg">
<g id="material-symbols:help-outline">
<path id="Vector" d="M24.8959 37.5C25.6251 37.5 26.2417 37.2479 26.7459 36.7437C27.2501 36.2395 27.5015 35.6236 27.5001 34.8958C27.5001 34.1666 27.2487 33.55 26.7459 33.0458C26.2431 32.5416 25.6265 32.2902 24.8959 32.2916C24.1667 32.2916 23.5508 32.5437 23.048 33.0479C22.5452 33.552 22.2931 34.168 22.2917 34.8958C22.2917 35.625 22.5438 36.2416 23.048 36.7458C23.5522 37.25 24.1681 37.5013 24.8959 37.5ZM23.0209 29.4791H26.8751C26.8751 28.3333 27.0056 27.4305 27.2667 26.7708C27.5279 26.1111 28.2654 25.2083 29.4792 24.0625C30.382 23.1597 31.0938 22.3 31.6147 21.4833C32.1355 20.6666 32.3959 19.6861 32.3959 18.5416C32.3959 16.5972 31.6841 15.1041 30.2605 14.0625C28.8369 13.0208 27.1529 12.5 25.2084 12.5C23.2292 12.5 21.623 13.0208 20.3897 14.0625C19.1563 15.1041 18.2973 16.3541 17.8126 17.8125L21.2501 19.1666C21.4237 18.5416 21.8147 17.8645 22.423 17.1354C23.0313 16.4062 23.9598 16.0416 25.2084 16.0416C26.3195 16.0416 27.1529 16.3458 27.7084 16.9541C28.264 17.5625 28.5417 18.2305 28.5417 18.9583C28.5417 19.6527 28.3334 20.3041 27.9167 20.9125C27.5001 21.5208 26.9792 22.0847 26.3542 22.6041C24.8265 23.9583 23.889 24.9826 23.5417 25.677C23.1945 26.3715 23.0209 27.6388 23.0209 29.4791ZM25.0001 45.8333C22.1181 45.8333 19.4098 45.2861 16.8751 44.1916C14.3404 43.0972 12.1355 41.6132 10.2605 39.7395C8.3855 37.8645 6.90147 35.6597 5.80841 33.125C4.71536 30.5902 4.16814 27.8819 4.16675 25C4.16675 22.118 4.71397 19.4097 5.80841 16.875C6.90286 14.3402 8.38689 12.1354 10.2605 10.2604C12.1355 8.38538 14.3404 6.90135 16.8751 5.80829C19.4098 4.71524 22.1181 4.16801 25.0001 4.16663C27.882 4.16663 30.5904 4.71385 33.1251 5.80829C35.6598 6.90274 37.8647 8.38677 39.7397 10.2604C41.6147 12.1354 43.0994 14.3402 44.1938 16.875C45.2883 19.4097 45.8348 22.118 45.8334 25C45.8334 27.8819 45.2862 30.5902 44.1917 33.125C43.0973 35.6597 41.6133 37.8645 39.7397 39.7395C37.8647 41.6145 35.6598 43.0993 33.1251 44.1937C30.5904 45.2882 27.882 45.8347 25.0001 45.8333ZM25.0001 41.6666C29.6529 41.6666 33.5938 40.052 36.823 36.8229C40.0522 33.5937 41.6667 29.6527 41.6667 25C41.6667 20.3472 40.0522 16.4062 36.823 13.177C33.5938 9.94788 29.6529 8.33329 25.0001 8.33329C20.3473 8.33329 16.4063 9.94788 13.1772 13.177C9.948 16.4062 8.33341 20.3472 8.33341 25C8.33341 29.6527 9.948 33.5937 13.1772 36.8229C16.4063 40.052 20.3473 41.6666 25.0001 41.6666Z" fill="black"/>
</g>
</svg>
