<svg width="55" height="55" viewBox="0 0 55 55" fill="none" xmlns="http://www.w3.org/2000/svg">
<g id="basil:timer-solid">
<path id="Vector" d="M22.9164 8.19958C22.4606 8.19958 22.0234 8.0185 21.7011 7.69617C21.3788 7.37385 21.1977 6.93668 21.1977 6.48083C21.1977 6.02499 21.3788 5.58782 21.7011 5.2655C22.0234 4.94317 22.4606 4.76208 22.9164 4.76208H31.0198C31.4756 4.76208 31.9128 4.94317 32.2351 5.2655C32.5574 5.58782 32.7385 6.02499 32.7385 6.48083C32.7385 6.93668 32.5574 7.37385 32.2351 7.69617C31.9128 8.0185 31.4756 8.19958 31.0198 8.19958H22.9164ZM14.9644 9.23542C15.2862 9.55769 15.467 9.99453 15.467 10.45C15.467 10.9055 15.2862 11.3423 14.9644 11.6646L9.23519 17.3938C8.90937 17.6974 8.47843 17.8626 8.03316 17.8548C7.58788 17.8469 7.16304 17.6665 6.84814 17.3516C6.53323 17.0367 6.35285 16.6119 6.34499 16.1666C6.33714 15.7213 6.50242 15.2904 6.80602 14.9646L12.5352 9.23542C12.8575 8.91355 13.2943 8.73276 13.7498 8.73276C14.2052 8.73276 14.6421 8.91355 14.9644 9.23542Z" fill="#64ACA6"/>
<path id="Vector_2" fill-rule="evenodd" clip-rule="evenodd" d="M27.5002 11.5958C22.334 11.5958 17.3794 13.6481 13.7263 17.3011C10.0733 20.9542 8.021 25.9088 8.021 31.075C8.021 36.2412 10.0733 41.1958 13.7263 44.8488C17.3794 48.5019 22.334 50.5542 27.5002 50.5542C32.6664 50.5542 37.621 48.5019 41.274 44.8488C44.9271 41.1958 46.9793 36.2412 46.9793 31.075C46.9793 25.9088 44.9271 20.9542 41.274 17.3011C37.621 13.6481 32.6664 11.5958 27.5002 11.5958ZM38.9356 20.1002C39.103 19.8797 39.1849 19.6061 39.1661 19.3299C39.1474 19.0537 39.0293 18.7936 38.8337 18.5977C38.6381 18.4019 38.3782 18.2834 38.1021 18.2643C37.8259 18.2452 37.5521 18.3267 37.3314 18.4937L30.0554 24.1496L25.3002 27.5481C24.9112 27.8253 24.5873 28.1839 24.3511 28.5989C24.1148 29.014 23.9719 29.4756 23.9323 29.9515C23.8926 30.4275 23.9571 30.9063 24.1214 31.3548C24.2857 31.8032 24.5457 32.2105 24.8834 32.5482C25.2211 32.8859 25.6284 33.146 26.0768 33.3102C26.5253 33.4745 27.0042 33.539 27.4801 33.4994C27.956 33.4597 28.4176 33.3168 28.8327 33.0805C29.2478 32.8443 29.6064 32.5204 29.8835 32.1315L33.2797 27.374L38.9356 20.1002Z" fill="#64ACA6"/>
</g>
</svg>
